<?xml version="1.0" encoding="utf-8"?>
<!DOCTYPE svg PUBLIC "-//W3C//DTD SVG 1.0//EN" "http://www.w3.org/TR/2001/REC-SVG-20010904/DTD/svg10.dtd">
<svg version="1.0" xmlns="http://www.w3.org/2000/svg" width="325px" height="120px" viewBox="0 0 325 120" preserveAspectRatio="xMidYMid meet">
 <g fill="#000000">
  <path d="M200 117.70 c-21.10 -1.40 -40.45 -14.45 -51.35 -34.65 -3.40 -6.30 -5.80 -9.70 -9.25 -13.05 -1.70 -1.65 -3.25 -3 -3.45 -3 -0.20 0 -0.70 -0.35 -1.10 -0.75 -1.10 -1.10 -6.20 -3.55 -9.80 -4.70 -4.45 -1.45 -11.65 -1.45 -16.10 0 -3.05 1 -8.95 3.75 -9.45 4.40 -0.15 0.15 -1.10 0.95 -2.15 1.70 -4.10 3.05 -7.50 7.70 -11.75 15.90 -1.65 3.20 -4.15 7.60 -5.60 9.75 -3.45 5.15 -11.80 13.35 -16.25 16 -10.05 5.85 -16.10 6.90 -36.75 6.55 -12.65 -0.25 -14.50 -0.40 -16.50 -1.25 -5.10 -2.20 -8 -7.80 -8 -15.40 0 -6.35 2.15 -11 6.15 -13.55 1.80 -1.15 2.90 -1.35 7.85 -1.70 3.15 -0.20 8.60 -0.40 12.10 -0.40 16.10 -0.10 23.05 -4.40 29.75 -18.55 0.95 -2.05 2.35 -5 3.05 -6.50 1.15 -2.40 2.65 -5 4.70 -8.20 2.85 -4.25 8.85 -10.80 13.45 -14.60 4.05 -3.35 14.30 -9.20 16.10 -9.20 0.45 0 0.90 -0.20 1.05 -0.45 0.15 -0.25 0.80 -0.55 1.40 -0.70 0.65 -0.15 2.05 -0.55 3.15 -0.85 9.10 -2.55 28.30 -2.85 34 -0.50 0.55 0.20 2.15 0.70 3.50 1.05 1.40 0.30 2.75 0.75 3 0.95 0.30 0.20 1.40 0.65 2.50 1 1.10 0.35 2.10 0.80 2.25 0.95 0.15 0.15 1.70 1.05 3.50 2 5.30 2.75 9.45 5.90 14.80 11.25 5.25 5.25 10.25 11.55 11.95 15.20 0.55 1.15 1.15 2.10 1.40 2.10 0.20 0 0.35 0.30 0.35 0.70 0 1.10 4.65 7.85 7.05 10.25 3.65 3.60 7.65 6 12.70 7.60 2.55 0.80 9.45 0.80 12 0 5.90 -1.85 11.80 -6.05 15.45 -11 1 -1.35 3.15 -5.05 4.75 -8.25 2.90 -5.65 7.70 -13.20 10.45 -16.45 2.05 -2.45 9.10 -9.45 11.35 -11.25 7.65 -6.15 17.75 -11.70 25.75 -14.10 2.70 -0.80 2.75 -0.85 3.25 -3.30 0.95 -4.55 3.65 -7.90 7.75 -9.55 2.95 -1.20 10.40 -1.15 13.10 0.05 2.60 1.15 5.30 4 6.75 7.10 0.95 2.15 1.65 2.85 3.45 3.80 4.50 2.20 8.45 7.50 9.65 12.90 0.70 2.95 0.50 9.60 -0.30 12.50 -1.45 5.25 -5.55 10 -10.55 12.45 -2.55 1.20 -4.25 1.60 -9 2.05 -5.40 0.50 -6.65 0.75 -10.85 2.15 -4.35 1.40 -9.95 4.30 -12.55 6.45 -6.65 5.50 -9.45 9.10 -14.15 18.10 -3.50 6.70 -5 9 -9.10 14.10 -7.30 8.95 -18 16.45 -28.20 19.70 -1.90 0.60 -3.90 1.30 -4.35 1.55 -0.50 0.25 -1.50 0.45 -2.25 0.45 -0.80 0 -2.10 0.20 -2.95 0.45 -1.80 0.50 -13.60 1 -17.70 0.75z m18.55 -10.75 c0.95 -0.30 2.15 -0.70 2.70 -0.95 0.55 -0.25 1.55 -0.60 2.25 -0.75 2.05 -0.55 6.65 -2.95 7.75 -4 1.65 -1.65 2.30 -3.55 1.70 -5.10 -0.30 -0.75 -0.65 -1.50 -0.85 -1.65 -0.20 -0.15 -1.15 -1.25 -2.10 -2.50 -0.95 -1.25 -1.85 -2.35 -2 -2.50 -0.15 -0.15 -0.90 -1.10 -1.65 -2.15 -1.90 -2.50 -3.95 -3.55 -6.30 -3.10 -1 0.20 -2 0.50 -2.30 0.75 -0.25 0.20 -1.70 0.65 -3.20 1.05 -2.70 0.70 -5.35 2.65 -6.50 4.80 -0.80 1.60 -0.70 9.70 0.20 11.70 0.85 2 2.10 3.55 3.50 4.35 1.25 0.75 4.60 0.75 6.80 0.05z m-174.05 -1.10 c3.55 -1.60 3.80 -3 1.15 -7.75 -2.90 -5.35 -3.25 -5.60 -7.45 -5.60 -2 0 -4.25 0.25 -5.05 0.55 -1.90 0.70 -4.10 2.85 -4.90 4.85 -0.60 1.40 -0.60 1.85 0.10 3.50 1.20 2.95 3.20 4.60 6.40 5.25 1.75 0.35 8.45 -0.20 9.75 -0.80z m149.85 -0.65 c2.65 -2 3.15 -3.50 3.15 -9.20 0 -7.20 -0.80 -8.45 -6.80 -10.90 -1.95 -0.80 -5.05 -2.45 -6.95 -3.65 -5.35 -3.40 -6.80 -2.95 -12.80 3.90 -4.05 4.65 -3.30 7.10 3.70 12.35 4.05 3.05 11.70 7.15 14.20 7.60 0.90 0.15 1.80 0.50 1.95 0.75 0.45 0.80 1.80 0.50 3.55 -0.85z m-176.85 -5.15 c-0.05 -4.65 -0.55 -6.55 -1.85 -6.55 -0.80 0 -2.50 2.10 -3.35 4.10 -0.70 1.75 -0.70 2.05 0.25 4.30 0.55 1.35 1.60 2.75 2.35 3.20 2.15 1.35 2.60 0.45 2.60 -5.05z m45.55 -3.25 c1.25 -0.90 3.10 -2.70 4.10 -4 1.05 -1.25 2.20 -2.60 2.60 -3 1.60 -1.55 1.45 -3.10 -0.60 -5.15 -2.85 -2.95 -5.15 -4.65 -6.10 -4.65 -0.50 0 -2.60 1.65 -4.60 3.65 -5.55 5.35 -5.30 4.80 -3.35 8.45 1.55 2.95 4.45 6.40 5.35 6.40 0.20 0 1.40 -0.75 2.60 -1.70z m184.30 -9.10 c1.60 -1 8.65 -11.95 8.65 -13.40 0 -0.20 -1.85 -2.20 -4.15 -4.45 -2.30 -2.25 -5.15 -5.30 -6.35 -6.70 -2.25 -2.75 -3.80 -3.35 -5 -1.90 -0.30 0.40 -1.50 2.45 -2.60 4.60 -1.10 2.15 -2.45 4.60 -3.05 5.40 -2.50 3.40 -2.65 4.10 -1.45 6.40 1.75 3.25 7.30 9.60 9.15 10.50 1.75 0.85 2.90 0.75 4.80 -0.45z m-81.80 -13.05 c2.20 -2.15 4.50 -4.50 5.05 -5.25 l0.95 -1.40 -1.55 -2.85 c-2.70 -4.95 -6.50 -10.30 -9.25 -13 -2.35 -2.35 -2.90 -2.65 -4.70 -2.65 -1.80 0 -2.40 0.30 -4.20 2.15 -2.65 2.70 -5.55 8.05 -5.15 9.60 0.25 0.95 3.50 5.35 5.65 7.65 0.30 0.30 0.75 1.05 0.90 1.60 0.15 0.55 0.50 1 0.75 1 0.20 0 0.75 0.90 1.20 2 1.10 2.80 3.25 5 4.90 5 1.05 0 2.40 -0.95 5.45 -3.85z m-86.45 -1.50 c0.75 -0.75 1.40 -1.65 1.40 -2 0 -0.35 0.20 -0.65 0.45 -0.65 0.25 0 0.60 -0.40 0.80 -0.95 0.15 -0.50 0.85 -1.55 1.55 -2.35 1.95 -2.20 2.80 -4.10 2.40 -5.35 -0.20 -0.60 -0.50 -1.20 -0.65 -1.35 -0.20 -0.15 -1 -1.15 -1.80 -2.25 -3.25 -4.50 -5.10 -5.20 -7.60 -2.85 -1.55 1.45 -4.50 6.20 -5.65 9.10 -0.35 0.95 -0.85 1.95 -1.05 2.20 -0.60 0.70 0.40 2.30 3.20 5.15 3.10 3.10 4.75 3.40 6.95 1.30z m187 -13.25 c1.45 -1.45 3.50 -3.30 4.45 -4.15 3.20 -2.70 3.30 -3.25 1.05 -7.90 -1.10 -2.25 -2.50 -5.50 -3.15 -7.25 -1.05 -3.05 -3.20 -5.60 -4.70 -5.60 -1.90 0 -13.50 10.55 -14.05 12.80 -0.45 1.70 3.15 7 8.60 12.60 2.90 2.95 4.30 2.90 7.80 -0.50z m-165.80 -5.95 c0.25 -0.20 1.75 -0.75 3.25 -1.10 7.25 -1.90 7.95 -2.80 7.95 -9.85 0 -5.25 -0.45 -6.90 -2.45 -8.70 -1.65 -1.50 -5.60 -0.60 -12.60 2.90 -5.30 2.65 -7.95 5.15 -7.95 7.35 0 2 3.80 7.60 6.25 9.20 2 1.25 4.10 1.35 5.55 0.20z m39.35 -4.75 c1.35 -1.90 3 -4.40 3.70 -5.55 l1.25 -2.10 -1.15 -2.05 c-0.85 -1.50 -1.80 -2.30 -4.15 -3.40 -4.70 -2.20 -10 -3.80 -11.50 -3.40 -1.85 0.45 -4.70 3.15 -5.55 5.20 -1.55 3.60 -0.65 9 1.85 11.65 1.60 1.65 2.80 2.25 7.15 3.45 4.15 1.15 5.35 0.60 8.40 -3.80z m153.35 -3.65 c1.50 -0.30 4.45 -0.70 6.50 -0.85 4 -0.30 5.30 -0.70 7.95 -2.60 2 -1.45 1.80 -1.60 -3.20 -2.85 -1.90 -0.50 -4.90 -1.55 -6.60 -2.40 -3.10 -1.45 -3.15 -1.50 -3.15 -3.45 l0 -2 1.90 0.25 c1 0.15 2.85 0.50 4.10 0.85 4.40 1.10 6.80 1.15 9.45 0.25 1.40 -0.45 2.65 -1 2.80 -1.25 0.45 -0.70 -1.35 -4.65 -2.85 -6.30 -1.30 -1.45 -3.50 -2.70 -7 -4.10 -1.05 -0.45 -1.70 -0.40 -2.90 0.25 -2.10 1.05 -7.05 0.70 -8.50 -0.60 -1 -0.90 -1 -0.90 -1 0.15 0 1.15 -1.70 2.60 -3.10 2.60 -1.95 0 -6.25 2.45 -8.05 4.50 -2.30 2.70 -2.35 3.95 -0.30 9.20 1.85 4.70 3.10 6.75 5.15 8.20 1.65 1.15 3.35 1.20 8.80 0.15z"/>
 </g>
 <g fill="#ffffff">
  <path d="M0 60 l0 -60 162.50 0 162.50 0 0 60 0 60 -162.50 0 -162.50 0 0 -60z m216 55.45 c0.95 -0.25 2.35 -0.45 3.15 -0.45 0.75 0 1.75 -0.20 2.25 -0.45 0.45 -0.25 2.45 -0.95 4.35 -1.55 10.20 -3.25 20.90 -10.75 28.20 -19.70 4.10 -5.10 5.60 -7.40 9.10 -14.10 4.70 -9 7.50 -12.60 14.15 -18.10 2.60 -2.15 8.20 -5.05 12.55 -6.45 4.20 -1.40 5.45 -1.65 10.85 -2.15 7.25 -0.70 10.85 -2.25 14.70 -6.25 3.55 -3.70 5 -7.05 5.55 -12.50 0.70 -6.85 -3.85 -15.10 -10.05 -18.15 -1.80 -0.95 -2.50 -1.65 -3.45 -3.80 -1.45 -3.10 -4.15 -6 -6.75 -7.10 -2.45 -1.05 -7.80 -1.05 -10.35 0.05 -3.90 1.65 -6.55 5 -7.50 9.45 -0.50 2.45 -0.55 2.50 -3.25 3.30 -8 2.40 -18.10 7.95 -25.75 14.10 -2.25 1.80 -9.30 8.80 -11.35 11.25 -2.75 3.25 -7.55 10.80 -10.45 16.45 -1.60 3.20 -3.75 6.90 -4.75 8.25 -3.65 4.95 -9.45 9.10 -15.45 11 -2.60 0.85 -12.40 0.85 -15 0 -5.15 -1.65 -9.05 -4 -12.70 -7.60 -2.40 -2.40 -7.05 -9.15 -7.05 -10.25 0 -0.40 -0.15 -0.70 -0.35 -0.70 -0.25 0 -0.85 -0.95 -1.40 -2.10 -1.70 -3.65 -6.70 -9.95 -11.95 -15.20 -5.35 -5.35 -9.50 -8.50 -14.80 -11.25 -1.80 -0.95 -3.35 -1.85 -3.50 -2 -0.15 -0.15 -1.15 -0.60 -2.25 -0.95 -1.10 -0.35 -2.20 -0.80 -2.50 -1 -0.25 -0.20 -1.60 -0.65 -3 -0.95 -1.35 -0.35 -2.95 -0.85 -3.50 -1.05 -5.60 -2.30 -22.05 -2 -31 0.50 -1.10 0.30 -2.50 0.70 -3.15 0.85 -0.60 0.15 -1.25 0.45 -1.40 0.70 -0.15 0.25 -0.60 0.45 -1.05 0.45 -1.80 0 -12.05 5.85 -16.10 9.20 -4.60 3.80 -10.60 10.35 -13.45 14.60 -2.05 3.20 -3.55 5.80 -4.70 8.20 -0.70 1.50 -2.10 4.45 -3.05 6.50 -6.70 14.15 -13.65 18.45 -29.75 18.55 -3.50 0 -8.95 0.20 -12.10 0.40 -4.95 0.35 -6.05 0.55 -7.85 1.70 -7.15 4.50 -8.20 16.15 -2.10 23.10 3.05 3.45 4.50 3.75 18.95 4.10 18.95 0.40 25.35 -0.80 35.25 -6.55 4.45 -2.65 12.80 -10.85 16.25 -16 1.45 -2.15 3.95 -6.55 5.60 -9.75 4.25 -8.20 7.65 -12.85 11.75 -15.90 1.05 -0.75 2 -1.55 2.15 -1.70 0.50 -0.65 6.40 -3.40 9.45 -4.40 4.60 -1.50 14.50 -1.50 19.10 0 3.60 1.15 8.70 3.60 9.80 4.70 0.40 0.40 0.90 0.75 1.10 0.75 0.20 0 1.75 1.35 3.45 3 3.45 3.35 5.85 6.75 9.25 13.05 10.90 20.20 30.50 33.40 51.35 34.60 3.95 0.25 12.45 -0.15 14.50 -0.70z"/>
  <path d="M213.25 109.10 c-2.60 -0.40 -3.30 -0.70 -4.50 -2 -2.30 -2.35 -2.75 -4.25 -2.75 -10.70 0 -3.45 0.25 -6.40 0.55 -7.05 1.15 -2.15 3.80 -4.10 6.50 -4.80 1.50 -0.40 2.95 -0.85 3.20 -1 0.30 -0.20 1.45 -0.65 2.60 -1.05 3.65 -1.15 6.75 0.35 10.15 4.75 3.05 4 4.25 5.55 4.60 5.75 0.60 0.45 1.40 3 1.40 4.50 0 1.80 -0.90 3.95 -2.25 5.25 -1.20 1.20 -5.85 3.55 -8 4.05 -0.80 0.20 -1.70 0.50 -2 0.70 -1.15 0.85 -7.55 1.90 -9.50 1.60z"/>
  <path d="M33.25 108.20 c-3.40 -0.85 -5.20 -2.35 -6.45 -5.40 -1.45 -3.45 -0.70 -6.80 2.05 -9.40 2.05 -1.95 3.50 -2.35 9.15 -2.50 4.75 -0.10 5.10 -0.05 6.20 1.10 1.70 1.80 5.30 8.85 5.30 10.40 0 1.95 -1.05 3.65 -2.75 4.60 -1.55 0.85 -11.30 1.70 -13.50 1.20z"/>
  <path d="M13.65 106.85 c-1.75 -1.20 -3.65 -5.05 -3.65 -7.40 0 -1.80 1.60 -5.45 2.90 -6.65 0.60 -0.50 1.80 -0.90 2.85 -0.90 2.85 0 3.20 0.90 3.25 8.20 0 6 -0.05 6.40 -1.10 7.10 -1.45 1.05 -2.30 0.95 -4.25 -0.35z"/>
  <path d="M189.30 107.55 c-0.15 -0.25 -1.05 -0.60 -1.95 -0.75 -2.50 -0.45 -10.15 -4.55 -14.20 -7.60 -5.10 -3.85 -6.40 -5.65 -6.40 -9.20 0 -3.25 0.65 -4.30 5.50 -9.10 2.35 -2.30 3.30 -2.90 5.05 -3.20 2.90 -0.40 4.35 0 8.15 2.40 1.80 1.10 4.80 2.70 6.75 3.50 6.25 2.55 6.80 3.55 6.80 12.40 0 7.30 -0.40 8.60 -3.15 10.70 -1.25 0.95 -2.30 1.30 -4 1.30 -1.25 0 -2.40 -0.20 -2.55 -0.45z"/>
  <path d="M56.90 98.35 c-2.30 -2.30 -4.90 -7.35 -4.90 -9.55 0 -1.65 0.45 -2.30 4.25 -6.05 6.05 -6 7.55 -6.10 13.10 -0.90 3.20 2.95 4.05 5 3.10 7.30 -0.35 0.90 -0.95 1.90 -1.30 2.25 -0.30 0.35 -1.45 1.65 -2.50 2.90 -4.75 5.80 -8.65 7.15 -11.75 4.05z"/>
  <path d="M241.55 89.90 c-1.30 -0.65 -3.25 -2.35 -4.90 -4.35 -4.35 -5.20 -5.65 -7.45 -5.65 -9.85 0 -2.20 0.30 -2.90 3.05 -7.20 0.95 -1.50 2.40 -4.05 3.15 -5.65 1.70 -3.55 3.15 -4.60 5.70 -4.20 1.45 0.25 2.35 0.90 4.05 2.95 1.25 1.45 4.10 4.50 6.40 6.75 2.25 2.25 4.25 4.65 4.45 5.35 0.25 1 -0.30 2.40 -2.25 5.90 -3.90 7 -5.75 9.30 -8.35 10.45 -2.80 1.15 -2.90 1.15 -5.65 -0.15z"/>
  <path d="M158 80.15 c-1.30 -0.50 -3.50 -3.10 -4.30 -5.15 -0.45 -1.10 -1 -2 -1.20 -2 -0.25 0 -0.60 -0.45 -0.75 -1 -0.15 -0.55 -0.60 -1.30 -0.90 -1.65 -1.60 -1.70 -4.75 -5.70 -5.25 -6.70 -1.10 -2 -0.70 -5 1.05 -8.30 4.45 -8.45 10.45 -10.15 15.90 -4.50 4.70 4.90 10.45 14.45 10.45 17.35 0 1.60 -0.50 2.35 -4.35 6.30 -5.30 5.45 -7.70 6.75 -10.65 5.65z"/>
  <path d="M74.55 76.15 c-1.45 -0.30 -5.85 -4.30 -6.85 -6.25 -0.80 -1.55 -0.90 -3.55 -0.25 -4.80 0.30 -0.45 1.20 -2.30 2.05 -4.05 3.40 -7 6.15 -9.50 9.60 -8.85 2 0.35 3.50 1.60 5.65 4.55 0.80 1.10 1.60 2.10 1.75 2.25 0.55 0.50 1.50 3.05 1.50 4.05 0 1 -1.65 3.90 -3.45 5.90 -0.55 0.65 -1.15 1.60 -1.30 2.10 -0.20 0.55 -0.55 0.95 -0.80 0.95 -0.25 0 -0.45 0.30 -0.45 0.65 0 0.35 -0.60 1.25 -1.35 1.95 -1.45 1.35 -3.95 2 -6.10 1.55z"/>
  <path d="M259.20 63.80 c-0.85 -0.35 -2.65 -2 -4 -3.60 -1.35 -1.60 -2.75 -3.25 -3.05 -3.60 -0.35 -0.35 -1.40 -1.85 -2.40 -3.30 -2.15 -3.25 -2.40 -6.35 -0.65 -8.60 2.90 -3.75 11.45 -10.95 13.70 -11.50 1.50 -0.40 3.75 0.50 5.10 1.95 0.55 0.60 1.80 3.15 2.80 5.70 0.95 2.55 2.30 5.65 3 6.90 2.15 3.85 1.70 6.70 -1.65 9.50 -0.95 0.85 -2.95 2.65 -4.40 4.05 -3.25 3.15 -5.40 3.80 -8.45 2.50z"/>
  <path d="M94.75 56 c-2.70 -1.30 -3.25 -1.80 -5.60 -5.25 -4.60 -6.90 -3.10 -10.60 6.20 -15.20 2.80 -1.40 5.35 -2.55 5.75 -2.55 0.35 0 1.65 -0.35 2.90 -0.80 2.50 -0.85 5.25 -0.60 6.70 0.70 1.95 1.80 2.30 3.30 2.30 10.10 0 8.75 -0.45 9.35 -7.95 11.35 -1.50 0.35 -3 0.85 -3.25 1.10 -0.50 0.40 -2.40 1 -4.30 1.35 -0.40 0.10 -1.65 -0.25 -2.75 -0.80z"/>
  <path d="M131.25 54.95 c-1.35 -0.45 -2.90 -0.90 -3.35 -0.90 -1.30 -0.05 -4.45 -2 -5.70 -3.40 -0.60 -0.70 -1.35 -2.10 -1.65 -3.15 -0.80 -2.60 -0.70 -9.05 0.15 -11.05 0.75 -1.80 2.80 -3.95 4.65 -4.90 2.60 -1.35 9.35 0.05 15.95 3.25 2.90 1.40 4.70 4 4.70 6.85 0 2.50 -6.35 12.15 -8.65 13.05 -2.75 1.15 -3.55 1.20 -6.10 0.25z"/>
  <path d="M282.70 46.90 c-2.05 -1.45 -3.35 -3.50 -5.25 -8.50 -2.20 -5.55 -2.20 -8.70 -0.10 -11.30 1.90 -2.35 3.90 -3.70 6.70 -4.55 4.60 -1.35 4.70 -1.45 4.85 -5.35 0.10 -2.75 0.35 -3.75 1.25 -4.75 1.60 -1.85 2.95 -2.45 5.55 -2.45 2 0 2.55 0.25 4.30 2 1.25 1.25 2 2.45 2 3.20 0 2.10 0.90 3.80 2.35 4.35 6.05 2.45 8.05 4.30 9.75 9.10 1.30 3.85 1.10 4.35 -2.45 5.55 -3.70 1.25 -10.10 0.95 -14.50 -0.75 -0.65 -0.25 -1.15 -0.25 -1.15 0 0 0.75 5.60 3.15 10.25 4.40 2.50 0.65 4.85 1.55 5.25 1.90 0.60 0.65 0.50 0.95 -0.95 2.45 -2.45 2.50 -5.25 3.70 -9.55 4 -2.05 0.15 -5 0.55 -6.50 0.85 -1.50 0.30 -4.45 0.65 -6.50 0.75 -3.20 0.15 -3.95 0.05 -5.30 -0.90z m15.55 -26.90 c1.75 -0.65 2.95 -3.45 2.25 -5.30 -1.30 -3.45 -5 -4.25 -7.55 -1.75 -1.55 1.60 -1.80 3.05 -0.80 5.05 1.10 2.15 3.55 2.95 6.10 2z"/>
  <path d="M295 15.75 c-0.25 -0.70 -0.35 -1.55 -0.20 -2 0.75 -1.90 4.20 -1.15 4.20 0.90 0 2.50 -3.15 3.35 -4 1.10z"/>
 </g>
</svg>